<svg width="32" height="32" viewBox="0 0 32 32" fill="none" xmlns="http://www.w3.org/2000/svg">
  <!-- Background circle -->
  <circle cx="16" cy="16" r="15" fill="#3B82F6" stroke="#1E40AF" stroke-width="2"/>
  
  <!-- AI Brain/Neural Network representation -->
  <circle cx="12" cy="10" r="2" fill="#FFFFFF"/>
  <circle cx="20" cy="10" r="2" fill="#FFFFFF"/>
  <circle cx="16" cy="16" r="2" fill="#FFFFFF"/>
  <circle cx="10" cy="22" r="2" fill="#FFFFFF"/>
  <circle cx="22" cy="22" r="2" fill="#FFFFFF"/>
  
  <!-- Connection lines -->
  <line x1="12" y1="10" x2="16" y2="16" stroke="#FFFFFF" stroke-width="1.5"/>
  <line x1="20" y1="10" x2="16" y2="16" stroke="#FFFFFF" stroke-width="1.5"/>
  <line x1="16" y1="16" x2="10" y2="22" stroke="#FFFFFF" stroke-width="1.5"/>
  <line x1="16" y1="16" x2="22" y2="22" stroke="#FFFFFF" stroke-width="1.5"/>
  
  <!-- Code brackets -->
  <path d="M8 8 L10 8 L10 24 L8 24" stroke="#FFFFFF" stroke-width="1.5" fill="none"/>
  <path d="M22 8 L24 8 L24 24 L22 24" stroke="#FFFFFF" stroke-width="1.5" fill="none"/>
  
  <!-- Small code dots -->
  <circle cx="11" cy="12" r="0.5" fill="#FFFFFF"/>
  <circle cx="11" cy="16" r="0.5" fill="#FFFFFF"/>
  <circle cx="11" cy="20" r="0.5" fill="#FFFFFF"/>
  <circle cx="21" cy="12" r="0.5" fill="#FFFFFF"/>
  <circle cx="21" cy="16" r="0.5" fill="#FFFFFF"/>
  <circle cx="21" cy="20" r="0.5" fill="#FFFFFF"/>
</svg> 